<svg xmlns="http://www.w3.org/2000/svg" width="45.047" height="45.037" viewBox="0 0 45.047 45.037">
  <path id="Icon_awesome-instagram" data-name="Icon awesome-instagram" d="M22.523,13.209A11.547,11.547,0,1,0,34.07,24.756,11.529,11.529,0,0,0,22.523,13.209Zm0,19.054a7.507,7.507,0,1,1,7.507-7.507,7.521,7.521,0,0,1-7.507,7.507ZM37.236,12.737a2.693,2.693,0,1,1-2.693-2.693A2.687,2.687,0,0,1,37.236,12.737Zm7.648,2.733c-.171-3.608-.995-6.8-3.638-9.437S35.417,2.577,31.809,2.4c-3.718-.211-14.863-.211-18.582,0-3.6.171-6.794.995-9.437,3.628S.334,11.853.153,15.46c-.211,3.718-.211,14.863,0,18.582.171,3.608.995,6.8,3.638,9.437s5.829,3.457,9.437,3.638c3.718.211,14.863.211,18.582,0,3.608-.171,6.8-.995,9.437-3.638s3.457-5.829,3.638-9.437c.211-3.718.211-14.853,0-18.572Zm-4.8,22.561A7.6,7.6,0,0,1,35.8,42.313c-2.965,1.176-10,.9-13.275.9s-10.321.261-13.275-.9a7.6,7.6,0,0,1-4.281-4.281c-1.176-2.965-.9-10-.9-13.275s-.261-10.321.9-13.275A7.6,7.6,0,0,1,9.248,7.2c2.965-1.176,10-.9,13.275-.9s10.321-.261,13.275.9a7.6,7.6,0,0,1,4.281,4.281c1.176,2.965.9,10,.9,13.275S41.256,35.077,40.08,38.032Z" transform="translate(0.005 -2.238)" fill="#fff"/>
</svg>
