<svg id="Componente_11_3" data-name="Componente 11 – 3" xmlns="http://www.w3.org/2000/svg" width="336" height="93.553" viewBox="0 0 336 93.553">
  <text id="Fantastika" transform="translate(103 60.277)" fill="#fff" font-size="42" font-family="'Roboto Serif \32 0pt'" font-weight="700" letter-spacing="0.021em"><tspan x="0" y="0">Fantastika</tspan></text>
  <path id="Subtração_1" data-name="Subtração 1" d="M46.788,93.544a46.749,46.749,0,1,1,18.2-3.674,46.764,46.764,0,0,1-18.2,3.674Zm1.232-51.5a6.146,6.146,0,0,0-1.178.11,4.169,4.169,0,0,0-.7.184,10.5,10.5,0,0,0-1.478.756,8.856,8.856,0,0,0-1.4.93,4.572,4.572,0,0,0-.51.516,8.923,8.923,0,0,0-1.82,4.289c-.174.943-.337,1.841-.5,2.72-.318,1.753-.62,3.407-.975,5.272l-.187.7c-.978,3.608-2.09,7.693.457,10.908a6.993,6.993,0,0,0,4.829,2.1,6.389,6.389,0,0,0,1.927-.3,3.313,3.313,0,0,0,.591-.267,31.138,31.138,0,0,0,2.782-2,58.82,58.82,0,0,1,6.36-4.415l.331-.192a59.614,59.614,0,0,1,7.052-3.33,17.471,17.471,0,0,0,3.616-1.75,6.777,6.777,0,0,0,1.822-6.747c-1.5-3.843-5.612-4.925-9.219-5.879l-.692-.2-2.809-1c-1.6-.577-3.129-1.12-4.847-1.718a10.454,10.454,0,0,0-3.445-.679ZM29.784,43.915a2.665,2.665,0,1,0,0-.005Zm4.032-12.148a2.665,2.665,0,1,0,0-.005ZM57.4,27.973a2.664,2.664,0,1,0,0-.005ZM44.864,25.386a5.315,5.315,0,1,0,4.61,2.659,5.315,5.315,0,0,0-4.61-2.659Z" transform="translate(0.014 0.009)" fill="#fff"/>
</svg>
