<svg width="331" height="94" viewBox="0 0 331 94" fill="none" xmlns="http://www.w3.org/2000/svg">
<g clip-path="url(#clip0_1_130)">
<path d="M46.7943 93.5489C40.5371 93.5614 34.3419 92.3113 28.5795 89.8734C23.0189 87.5258 17.9668 84.1214 13.7041 79.8494C9.43083 75.5886 6.02539 70.5395 3.67629 64.9819C1.23749 59.2217 -0.0128415 53.0287 9.94349e-05 46.7739C-0.012525 40.5193 1.2378 34.3266 3.67629 28.5666C6.02559 23.0089 9.43128 17.9598 13.7048 13.6991C17.9675 9.42684 23.0196 6.02211 28.5803 3.6743C34.3426 1.2371 40.5374 -0.0129395 46.7943 -0.00113552C53.0515 -0.0131072 59.2466 1.23693 65.0091 3.6743C70.5695 6.02173 75.6215 9.42623 79.8838 13.6983C84.1574 17.959 87.5631 23.0081 89.9123 28.5658C92.351 34.3261 93.6013 40.519 93.5885 46.7739C93.6007 53.0279 92.3504 59.22 89.9123 64.9797C87.563 70.5374 84.157 75.5866 79.8831 79.8471C75.6204 84.1188 70.5685 87.5232 65.0084 89.8712C59.2463 92.3093 53.0514 93.5601 46.7943 93.5489ZM48.0202 42.0384C47.6263 42.0372 47.2335 42.0735 46.8464 42.1467C46.6073 42.1898 46.372 42.2524 46.1432 42.3343C45.6318 42.5472 45.1376 42.7993 44.665 43.0882L44.6507 43.0962C44.1586 43.3611 43.6926 43.6715 43.2586 44.0237C43.0742 44.1811 42.9029 44.3534 42.7465 44.5386C41.7699 45.7822 41.1424 47.2634 40.9277 48.8298C40.7691 49.6903 40.6184 50.5189 40.4722 51.3198L40.411 51.6554C40.0769 53.4886 39.792 55.0333 39.4548 56.8239C39.3934 57.0528 39.3309 57.2846 39.2675 57.5197C38.2852 61.1279 37.1736 65.2188 39.7237 68.4327C41.0007 69.7351 42.7355 70.488 44.5593 70.5317C45.2117 70.5297 45.8595 70.4274 46.4809 70.2286C46.6861 70.1548 46.8841 70.0609 47.0708 69.9481C48.0351 69.3326 48.9644 68.6641 49.8549 67.9461C51.8769 66.3353 54.0028 64.8599 56.2193 63.5293L56.5524 63.339C58.8323 62.0737 61.1926 60.9596 63.6185 60.0037H63.6269C64.8885 59.5627 66.0957 58.9788 67.2245 58.2634C68.1126 57.4097 68.7515 56.3308 69.0728 55.1417C69.3941 53.9527 69.3859 52.6984 69.0486 51.5139C67.5458 47.6721 63.4457 46.5897 59.8291 45.6379L59.1334 45.4541C58.1983 45.1224 57.317 44.8077 56.3447 44.459C54.8071 43.9085 53.2178 43.3396 51.4721 42.7319C50.3677 42.3126 49.2004 42.0829 48.0195 42.0523L48.0202 42.0384ZM29.7828 43.904C28.8505 43.9052 27.9352 44.1509 27.1278 44.6168C26.5225 44.9649 25.9921 45.4294 25.5673 45.9834C25.1425 46.5374 24.8316 47.1698 24.6526 47.8445C24.4701 48.5183 24.423 49.2219 24.5143 49.914C24.6057 50.6061 24.8333 51.2732 25.1843 51.8767C25.6529 52.6843 26.3257 53.3548 27.1346 53.8216C27.9435 54.2884 28.8608 54.5352 29.7949 54.537C30.7261 54.5339 31.6401 54.2878 32.4468 53.8227C33.6673 53.1168 34.5577 51.9557 34.9228 50.5943C35.2879 49.2328 35.0976 47.7821 34.3941 46.5606C33.9256 45.7536 33.2538 45.0834 32.4453 44.6171C31.6368 44.1509 30.7199 43.9048 29.7865 43.9033L29.7828 43.904ZM33.8155 31.755C32.8834 31.756 31.9683 32.0018 31.1612 32.4677C30.5556 32.8152 30.0248 33.2792 29.6 33.8332C29.1751 34.3871 28.8645 35.0199 28.686 35.6947C28.5035 36.3685 28.4565 37.0717 28.5478 37.7638C28.6392 38.4559 28.8675 39.123 29.2185 39.7265C29.687 40.5341 30.3591 41.2049 31.168 41.6714C31.977 42.138 32.8944 42.3844 33.8283 42.3857C34.7603 42.3853 35.6756 42.1394 36.4826 41.6733C37.7027 40.9674 38.5931 39.8065 38.9578 38.4452C39.3225 37.084 39.1314 35.634 38.4275 34.4131C37.9579 33.6025 37.2834 32.9296 36.4712 32.4625C35.659 31.9953 34.7382 31.7501 33.8011 31.7516L33.8155 31.755ZM57.4128 27.958C56.4802 27.9592 55.5646 28.2052 54.757 28.6715C54.1514 29.0186 53.6206 29.4825 53.1957 30.0362C52.7709 30.5899 52.4601 31.2223 52.2818 31.8969C52.0993 32.571 52.0522 33.2749 52.1436 33.9672C52.2349 34.6596 52.4632 35.3269 52.8143 35.9306C53.2829 36.7382 53.9555 37.4088 54.7646 37.8752C55.5736 38.3416 56.4908 38.5877 57.4248 38.5887C58.3558 38.5876 59.2699 38.3421 60.076 37.8767C61.2965 37.1707 62.1868 36.0096 62.552 34.6482C62.9173 33.2868 62.7281 31.8362 62.0248 30.6145C61.5544 29.8035 60.8781 29.1307 60.0647 28.664C59.2514 28.1972 58.3295 27.9529 57.3916 27.9557L57.4128 27.958ZM44.869 25.3766C43.9368 25.3775 43.0216 25.6235 42.2148 26.0901C40.9949 26.796 40.1045 27.9569 39.7395 29.3178C39.3746 30.6787 39.5644 32.1288 40.2675 33.35C40.7349 34.1566 41.4058 34.8262 42.2132 35.2927C43.0206 35.7591 43.9365 36.0059 44.869 36.008H44.8773C45.8093 36.007 46.7244 35.7617 47.5323 35.2972C48.1377 34.9493 48.668 34.485 49.0928 33.931C49.5176 33.3769 49.8287 32.7443 50.0075 32.0695C50.1906 31.3957 50.2382 30.6922 50.1472 30C50.0563 29.3077 49.8282 28.6406 49.4773 28.0369C49.0089 27.2294 48.3365 26.5589 47.5277 26.0924C46.719 25.6258 45.802 25.3795 44.8682 25.3781L44.869 25.3766Z" fill="white"/>
</g>
<path d="M116.306 35.246V57.884C116.306 58.248 116.39 58.542 116.558 58.766C116.754 58.962 116.992 59.102 117.272 59.186C117.58 59.242 117.902 59.284 118.238 59.312C118.602 59.34 118.952 59.354 119.288 59.354H120.002V62H105.302V59.354H105.722C106.422 59.354 107.01 59.256 107.486 59.06C107.962 58.864 108.2 58.458 108.2 57.842V36.338C108.2 35.722 107.962 35.316 107.486 35.12C107.01 34.924 106.422 34.826 105.722 34.826H105.302V32.18H128.57V40.58H125.294L124.916 37.094C124.86 36.59 124.664 36.198 124.328 35.918C123.992 35.638 123.502 35.456 122.858 35.372C122.242 35.288 121.486 35.246 120.59 35.246H116.306ZM115.172 45.662C116.348 45.606 117.482 45.55 118.574 45.494C119.694 45.438 120.786 45.368 121.85 45.284C122.914 45.2 123.978 45.13 125.042 45.074V48.98C123.978 48.868 122.9 48.784 121.808 48.728C120.744 48.644 119.666 48.574 118.574 48.518C117.482 48.434 116.348 48.378 115.172 48.35V45.662ZM143.399 49.022V51.458C142.447 51.57 141.593 51.738 140.837 51.962C140.081 52.158 139.423 52.396 138.863 52.676C138.331 52.956 137.883 53.278 137.519 53.642C137.155 54.006 136.889 54.412 136.721 54.86C136.553 55.308 136.469 55.812 136.469 56.372C136.469 57.016 136.567 57.548 136.763 57.968C136.987 58.388 137.295 58.71 137.687 58.934C138.079 59.158 138.541 59.27 139.073 59.27C139.717 59.27 140.291 59.102 140.795 58.766C141.327 58.402 141.803 57.898 142.223 57.254C142.643 56.61 143.007 55.854 143.315 54.986L143.441 57.716C143.049 58.696 142.531 59.55 141.887 60.278C141.243 60.978 140.459 61.51 139.535 61.874C138.611 62.238 137.547 62.42 136.343 62.42C134.887 62.42 133.627 62.21 132.563 61.79C131.527 61.342 130.729 60.698 130.169 59.858C129.609 58.99 129.329 57.94 129.329 56.708C129.329 55.532 129.623 54.524 130.211 53.684C130.827 52.816 131.723 52.088 132.899 51.5C134.075 50.912 135.545 50.422 137.309 50.03C139.073 49.638 141.103 49.302 143.399 49.022ZM142.979 62V57.884L142.475 57.926V46.334C142.475 45.55 142.363 44.92 142.139 44.444C141.915 43.94 141.565 43.576 141.089 43.352C140.641 43.128 140.081 43.016 139.409 43.016C138.401 43.016 137.561 43.24 136.889 43.688C136.217 44.108 135.713 44.64 135.377 45.284C135.153 45.004 135.027 44.738 134.999 44.486C134.999 44.206 135.055 43.954 135.167 43.73C135.307 43.506 135.503 43.31 135.755 43.142C136.035 42.974 136.357 42.848 136.721 42.764V47.342H130.799V42.806C131.219 42.498 131.835 42.134 132.647 41.714C133.459 41.266 134.495 40.874 135.755 40.538C137.043 40.202 138.527 40.034 140.207 40.034C141.635 40.034 142.937 40.174 144.113 40.454C145.317 40.734 146.353 41.182 147.221 41.798C148.089 42.386 148.761 43.156 149.237 44.108C149.713 45.032 149.951 46.152 149.951 47.468V58.136C149.951 58.444 150.035 58.682 150.203 58.85C150.371 59.018 150.595 59.144 150.875 59.228C151.183 59.284 151.561 59.34 152.009 59.396L152.177 59.438V62H142.979ZM153.964 62V59.522H154.048C154.468 59.522 154.832 59.494 155.14 59.438C155.476 59.354 155.742 59.228 155.938 59.06C156.134 58.864 156.232 58.612 156.232 58.304V44.486C156.232 44.178 156.162 43.954 156.022 43.814C155.91 43.646 155.714 43.506 155.434 43.394C155.154 43.282 154.79 43.184 154.342 43.1L153.964 43.016V40.454H163.414V45.074L163.918 45.116V59.186C163.918 59.27 164.016 59.34 164.212 59.396C164.408 59.452 164.66 59.494 164.968 59.522C165.276 59.522 165.556 59.522 165.808 59.522H165.892V62H153.964ZM180.424 62H168.496V59.522H168.538C168.79 59.522 169.07 59.522 169.378 59.522C169.686 59.494 169.938 59.452 170.134 59.396C170.358 59.312 170.47 59.242 170.47 59.186V47.132C170.47 46.404 170.386 45.816 170.218 45.368C170.078 44.92 169.84 44.584 169.504 44.36C169.168 44.136 168.72 44.024 168.16 44.024C167.488 44.024 166.858 44.22 166.27 44.612C165.682 44.976 165.122 45.522 164.59 46.25C164.086 46.95 163.582 47.832 163.078 48.896L162.994 45.242C163.526 44.15 164.184 43.212 164.968 42.428C165.752 41.644 166.648 41.056 167.656 40.664C168.692 40.244 169.812 40.034 171.016 40.034C172.472 40.034 173.732 40.314 174.796 40.874C175.86 41.406 176.686 42.204 177.274 43.268C177.862 44.332 178.156 45.676 178.156 47.3V58.304C178.156 58.612 178.254 58.864 178.45 59.06C178.646 59.228 178.898 59.354 179.206 59.438C179.542 59.494 179.92 59.522 180.34 59.522H180.424V62ZM181.581 43.31V40.622H181.707C182.323 40.622 182.855 40.58 183.303 40.496C183.779 40.384 184.143 40.202 184.395 39.95C184.647 39.67 184.773 39.278 184.773 38.774L188.721 40.454H197.457V43.31H181.581ZM192.081 54.818C192.081 55.882 192.193 56.736 192.417 57.38C192.669 57.996 193.019 58.43 193.467 58.682C193.915 58.934 194.461 59.06 195.105 59.06C195.637 59.06 196.141 59.004 196.617 58.892C197.093 58.78 197.443 58.682 197.667 58.598V61.664C197.443 61.776 197.107 61.888 196.659 62C196.239 62.112 195.721 62.21 195.105 62.294C194.517 62.378 193.845 62.42 193.089 62.42C191.437 62.42 189.953 62.182 188.637 61.706C187.321 61.23 186.285 60.432 185.529 59.312C184.773 58.192 184.395 56.68 184.395 54.776V41.21L184.731 40.874L184.857 34.616H192.081V54.818ZM214.086 49.022V51.458C213.134 51.57 212.28 51.738 211.524 51.962C210.768 52.158 210.11 52.396 209.55 52.676C209.018 52.956 208.57 53.278 208.206 53.642C207.842 54.006 207.576 54.412 207.408 54.86C207.24 55.308 207.156 55.812 207.156 56.372C207.156 57.016 207.254 57.548 207.45 57.968C207.674 58.388 207.982 58.71 208.374 58.934C208.766 59.158 209.228 59.27 209.76 59.27C210.404 59.27 210.978 59.102 211.482 58.766C212.014 58.402 212.49 57.898 212.91 57.254C213.33 56.61 213.694 55.854 214.002 54.986L214.128 57.716C213.736 58.696 213.218 59.55 212.574 60.278C211.93 60.978 211.146 61.51 210.222 61.874C209.298 62.238 208.234 62.42 207.03 62.42C205.574 62.42 204.314 62.21 203.25 61.79C202.214 61.342 201.416 60.698 200.856 59.858C200.296 58.99 200.016 57.94 200.016 56.708C200.016 55.532 200.31 54.524 200.898 53.684C201.514 52.816 202.41 52.088 203.586 51.5C204.762 50.912 206.232 50.422 207.996 50.03C209.76 49.638 211.79 49.302 214.086 49.022ZM213.666 62V57.884L213.162 57.926V46.334C213.162 45.55 213.05 44.92 212.826 44.444C212.602 43.94 212.252 43.576 211.776 43.352C211.328 43.128 210.768 43.016 210.096 43.016C209.088 43.016 208.248 43.24 207.576 43.688C206.904 44.108 206.4 44.64 206.064 45.284C205.84 45.004 205.714 44.738 205.686 44.486C205.686 44.206 205.742 43.954 205.854 43.73C205.994 43.506 206.19 43.31 206.442 43.142C206.722 42.974 207.044 42.848 207.408 42.764V47.342H201.486V42.806C201.906 42.498 202.522 42.134 203.334 41.714C204.146 41.266 205.182 40.874 206.442 40.538C207.73 40.202 209.214 40.034 210.894 40.034C212.322 40.034 213.624 40.174 214.8 40.454C216.004 40.734 217.04 41.182 217.908 41.798C218.776 42.386 219.448 43.156 219.924 44.108C220.4 45.032 220.638 46.152 220.638 47.468V58.136C220.638 58.444 220.722 58.682 220.89 58.85C221.058 59.018 221.282 59.144 221.562 59.228C221.87 59.284 222.248 59.34 222.696 59.396L222.864 59.438V62H213.666ZM237.956 56.876C237.956 56.4 237.816 56.008 237.536 55.7C237.284 55.392 236.92 55.126 236.444 54.902C235.996 54.678 235.464 54.482 234.848 54.314C234.26 54.146 233.616 53.978 232.916 53.81C232.076 53.586 231.222 53.32 230.354 53.012C229.486 52.704 228.688 52.298 227.96 51.794C227.26 51.29 226.686 50.646 226.238 49.862C225.818 49.05 225.608 48.042 225.608 46.838C225.608 45.354 226 44.094 226.784 43.058C227.568 42.022 228.66 41.252 230.06 40.748C231.488 40.216 233.154 39.95 235.058 39.95C236.598 39.95 237.928 40.076 239.048 40.328C240.168 40.552 241.078 40.818 241.778 41.126C242.506 41.434 242.996 41.7 243.248 41.924V46.208H238.04V42.47C238.432 42.442 238.74 42.498 238.964 42.638C239.188 42.75 239.328 42.904 239.384 43.1C239.44 43.296 239.44 43.506 239.384 43.73C239.328 43.954 239.244 44.164 239.132 44.36C238.852 44.024 238.502 43.744 238.082 43.52C237.69 43.296 237.242 43.128 236.738 43.016C236.262 42.904 235.716 42.848 235.1 42.848C234.036 42.848 233.224 43.058 232.664 43.478C232.132 43.87 231.866 44.43 231.866 45.158C231.866 45.634 232.006 46.04 232.286 46.376C232.566 46.684 232.944 46.95 233.42 47.174C233.924 47.398 234.498 47.608 235.142 47.804C235.786 47.972 236.458 48.154 237.158 48.35C238.054 48.574 238.936 48.84 239.804 49.148C240.7 49.456 241.512 49.862 242.24 50.366C242.996 50.87 243.598 51.5 244.046 52.256C244.494 53.012 244.718 53.964 244.718 55.112C244.718 56.652 244.312 57.968 243.5 59.06C242.716 60.152 241.54 60.992 239.972 61.58C238.432 62.14 236.528 62.42 234.26 62.42C232.748 62.42 231.376 62.294 230.144 62.042C228.912 61.818 227.862 61.538 226.994 61.202C226.126 60.838 225.454 60.502 224.978 60.194V55.448H230.312V60.362C229.836 60.138 229.472 59.886 229.22 59.606C228.968 59.326 228.8 59.06 228.716 58.808C228.66 58.528 228.66 58.29 228.716 58.094C228.8 57.87 228.954 57.73 229.178 57.674C229.57 58.122 230.018 58.486 230.522 58.766C231.026 59.018 231.586 59.2 232.202 59.312C232.846 59.424 233.532 59.48 234.26 59.48C235.044 59.48 235.702 59.396 236.234 59.228C236.766 59.032 237.186 58.738 237.494 58.346C237.802 57.954 237.956 57.464 237.956 56.876ZM246.033 43.31V40.622H246.159C246.775 40.622 247.307 40.58 247.755 40.496C248.231 40.384 248.595 40.202 248.847 39.95C249.099 39.67 249.225 39.278 249.225 38.774L253.173 40.454H261.909V43.31H246.033ZM256.533 54.818C256.533 55.882 256.645 56.736 256.869 57.38C257.121 57.996 257.471 58.43 257.919 58.682C258.367 58.934 258.913 59.06 259.557 59.06C260.089 59.06 260.593 59.004 261.069 58.892C261.545 58.78 261.895 58.682 262.119 58.598V61.664C261.895 61.776 261.559 61.888 261.111 62C260.691 62.112 260.173 62.21 259.557 62.294C258.969 62.378 258.297 62.42 257.541 62.42C255.889 62.42 254.405 62.182 253.089 61.706C251.773 61.23 250.737 60.432 249.981 59.312C249.225 58.192 248.847 56.68 248.847 54.776V41.21L249.183 40.874L249.309 34.616H256.533V54.818ZM270.221 37.472C268.961 37.472 267.953 37.164 267.197 36.548C266.441 35.932 266.063 35.092 266.063 34.028C266.063 32.936 266.441 32.082 267.197 31.466C267.953 30.85 268.961 30.542 270.221 30.542C271.509 30.542 272.517 30.85 273.245 31.466C274.001 32.082 274.379 32.936 274.379 34.028C274.379 35.092 274.001 35.932 273.245 36.548C272.517 37.164 271.509 37.472 270.221 37.472ZM274.169 40.454V58.304C274.169 58.808 274.379 59.144 274.799 59.312C275.247 59.452 275.779 59.522 276.395 59.522H276.437V62H264.257V59.522H264.299C264.915 59.522 265.433 59.452 265.853 59.312C266.273 59.144 266.483 58.808 266.483 58.304V44.486C266.483 44.038 266.329 43.73 266.021 43.562C265.741 43.394 265.265 43.24 264.593 43.1L264.215 43.016V40.454H274.169ZM305.571 62H292.593V59.522H292.719C292.971 59.522 293.237 59.522 293.517 59.522C293.825 59.494 294.077 59.452 294.273 59.396C294.497 59.312 294.609 59.228 294.609 59.144L289.275 51.206V50.324L296.751 43.646C296.751 43.45 296.569 43.296 296.205 43.184C295.869 43.072 295.477 43.002 295.029 42.974C294.581 42.918 294.161 42.89 293.769 42.89H293.475V40.454H303.975V42.89H303.891C303.359 42.89 302.855 42.96 302.379 43.1C301.903 43.24 301.441 43.45 300.993 43.73C300.573 43.982 300.153 44.29 299.733 44.654L293.349 50.366L294.861 47.258L302.421 58.136C302.701 58.472 302.995 58.752 303.303 58.976C303.639 59.172 303.989 59.312 304.353 59.396C304.745 59.48 305.137 59.522 305.529 59.522H305.571V62ZM288.393 31.004V59.102C288.393 59.214 288.491 59.312 288.687 59.396C288.911 59.452 289.163 59.494 289.443 59.522C289.751 59.522 290.031 59.522 290.283 59.522H290.409V62H278.481V59.522H278.523C279.167 59.522 279.685 59.452 280.077 59.312C280.497 59.144 280.707 58.808 280.707 58.304V35.078C280.707 34.77 280.637 34.532 280.497 34.364C280.385 34.196 280.189 34.056 279.909 33.944C279.629 33.832 279.265 33.734 278.817 33.65L278.439 33.566V31.004H288.393ZM321.342 49.022V51.458C320.39 51.57 319.536 51.738 318.78 51.962C318.024 52.158 317.366 52.396 316.806 52.676C316.274 52.956 315.826 53.278 315.462 53.642C315.098 54.006 314.832 54.412 314.664 54.86C314.496 55.308 314.412 55.812 314.412 56.372C314.412 57.016 314.51 57.548 314.706 57.968C314.93 58.388 315.238 58.71 315.63 58.934C316.022 59.158 316.484 59.27 317.016 59.27C317.66 59.27 318.234 59.102 318.738 58.766C319.27 58.402 319.746 57.898 320.166 57.254C320.586 56.61 320.95 55.854 321.258 54.986L321.384 57.716C320.992 58.696 320.474 59.55 319.83 60.278C319.186 60.978 318.402 61.51 317.478 61.874C316.554 62.238 315.49 62.42 314.286 62.42C312.83 62.42 311.57 62.21 310.506 61.79C309.47 61.342 308.672 60.698 308.112 59.858C307.552 58.99 307.272 57.94 307.272 56.708C307.272 55.532 307.566 54.524 308.154 53.684C308.77 52.816 309.666 52.088 310.842 51.5C312.018 50.912 313.488 50.422 315.252 50.03C317.016 49.638 319.046 49.302 321.342 49.022ZM320.922 62V57.884L320.418 57.926V46.334C320.418 45.55 320.306 44.92 320.082 44.444C319.858 43.94 319.508 43.576 319.032 43.352C318.584 43.128 318.024 43.016 317.352 43.016C316.344 43.016 315.504 43.24 314.832 43.688C314.16 44.108 313.656 44.64 313.32 45.284C313.096 45.004 312.97 44.738 312.942 44.486C312.942 44.206 312.998 43.954 313.11 43.73C313.25 43.506 313.446 43.31 313.698 43.142C313.978 42.974 314.3 42.848 314.664 42.764V47.342H308.742V42.806C309.162 42.498 309.778 42.134 310.59 41.714C311.402 41.266 312.438 40.874 313.698 40.538C314.986 40.202 316.47 40.034 318.15 40.034C319.578 40.034 320.88 40.174 322.056 40.454C323.26 40.734 324.296 41.182 325.164 41.798C326.032 42.386 326.704 43.156 327.18 44.108C327.656 45.032 327.894 46.152 327.894 47.468V58.136C327.894 58.444 327.978 58.682 328.146 58.85C328.314 59.018 328.538 59.144 328.818 59.228C329.126 59.284 329.504 59.34 329.952 59.396L330.12 59.438V62H320.922Z" fill="white"/>
<defs>
<clipPath id="clip0_1_130">
<rect width="93.59" height="93.55" fill="white"/>
</clipPath>
</defs>
</svg>
