<svg xmlns="http://www.w3.org/2000/svg" width="45.037" height="45.037" viewBox="0 0 45.037 45.037">
  <path id="Icon_awesome-whatsapp" data-name="Icon awesome-whatsapp" d="M38.292,8.794A22.325,22.325,0,0,0,3.167,35.726L0,47.287l11.832-3.106A22.25,22.25,0,0,0,22.5,46.9h.01A22.532,22.532,0,0,0,45.037,24.578,22.405,22.405,0,0,0,38.292,8.794ZM22.509,43.135a18.517,18.517,0,0,1-9.45-2.584l-.674-.4-7.017,1.84,1.87-6.846-.442-.7a18.586,18.586,0,1,1,34.472-9.862A18.757,18.757,0,0,1,22.509,43.135ZM32.682,29.242c-.553-.281-3.3-1.629-3.81-1.81s-.885-.281-1.257.281-1.438,1.81-1.769,2.192-.653.422-1.206.141c-3.277-1.639-5.429-2.925-7.59-6.635-.573-.985.573-.915,1.639-3.046a1.033,1.033,0,0,0-.05-.975c-.141-.281-1.257-3.026-1.719-4.142-.452-1.086-.915-.935-1.257-.955-.322-.02-.694-.02-1.066-.02a2.066,2.066,0,0,0-1.488.694,6.266,6.266,0,0,0-1.95,4.655c0,2.744,2,5.4,2.272,5.77s3.931,6,9.53,8.424c3.539,1.528,4.926,1.659,6.7,1.4,1.076-.161,3.3-1.347,3.76-2.654a4.664,4.664,0,0,0,.322-2.654C33.607,29.654,33.235,29.514,32.682,29.242Z" transform="translate(0 -2.25)" fill="#fff"/>
</svg>
