<svg xmlns="http://www.w3.org/2000/svg" width="57.758" height="40.611" viewBox="0 0 57.758 40.611">
  <path id="Icon_awesome-youtube" data-name="Icon awesome-youtube" d="M57.6,10.854a7.257,7.257,0,0,0-5.106-5.139C47.99,4.5,29.929,4.5,29.929,4.5S11.868,4.5,7.363,5.715a7.257,7.257,0,0,0-5.106,5.139C1.05,15.388,1.05,24.846,1.05,24.846s0,9.459,1.207,13.992A7.149,7.149,0,0,0,7.363,43.9c4.5,1.215,22.566,1.215,22.566,1.215s18.061,0,22.566-1.215A7.149,7.149,0,0,0,57.6,38.839c1.207-4.534,1.207-13.992,1.207-13.992s0-9.459-1.207-13.992ZM24.022,33.434V16.259l15.1,8.588-15.1,8.588Z" transform="translate(-1.05 -4.5)" fill="#fff"/>
</svg>
